<?xml version="1.0" standalone="no"?>
<!DOCTYPE svg PUBLIC "-//W3C//DTD SVG 20010904//EN"
 "http://www.w3.org/TR/2001/REC-SVG-20010904/DTD/svg10.dtd">
<svg version="1.0" xmlns="http://www.w3.org/2000/svg"
 width="1280.000000pt" height="1138.000000pt" viewBox="0 0 1280.000000 1138.000000"
 preserveAspectRatio="xMidYMid meet">
<metadata>
Created by potrace 1.15, written by Peter Selinger 2001-2017
</metadata>
<g transform="translate(0.000000,1138.000000) scale(0.100000,-0.100000)"
fill="#000000" stroke="none">
<path d="M260 11361 c0 -14 -12 -27 -37 -40 -60 -30 -97 -78 -158 -201 -67
-133 -78 -195 -51 -276 29 -89 62 -117 241 -207 l163 -82 562 -605 c309 -333
578 -622 598 -642 33 -35 37 -46 58 -165 12 -71 57 -321 99 -558 97 -549 285
-1608 325 -1835 17 -96 80 -452 140 -790 120 -677 135 -760 250 -1415 44 -247
82 -460 85 -472 5 -21 2 -23 -37 -23 -81 0 -379 -100 -542 -182 -458 -230
-692 -638 -646 -1128 31 -327 157 -666 399 -1071 l21 -36 -54 -41 c-112 -85
-215 -221 -275 -365 -48 -117 -64 -219 -59 -376 4 -120 9 -148 37 -231 98
-291 312 -497 606 -586 80 -24 107 -27 235 -28 119 0 160 4 226 22 330 89 569
334 651 668 25 104 23 305 -5 411 -12 45 -31 102 -42 128 -11 26 -20 49 -20
51 0 2 1143 4 2541 4 2416 0 2541 -1 2534 -18 -131 -305 -108 -612 66 -871
163 -244 413 -384 709 -398 343 -16 672 179 829 492 58 117 82 210 88 347 7
144 -7 241 -52 361 l-32 87 303 0 304 0 0 135 0 135 -408 0 -407 0 -60 45
c-76 58 -198 118 -300 147 -68 20 -103 23 -235 23 -131 0 -167 -4 -234 -23
-99 -29 -225 -91 -299 -148 l-57 -44 -2750 0 -2750 0 -52 40 c-74 56 -210 125
-298 150 -105 30 -296 38 -409 16 -47 -8 -86 -15 -87 -13 -13 13 -136 232
-180 319 -229 457 -280 849 -147 1138 112 246 372 433 757 544 l88 26 1324 0
1324 0 0 135 0 135 -1164 0 -1163 0 -7 32 c-3 17 -5 32 -4 33 2 1 815 7 1808
14 993 7 2309 16 2925 21 616 5 1923 14 2905 21 982 6 1786 13 1788 14 1 1 97
827 212 1836 115 1009 219 1915 230 2014 99 860 128 1130 120 1135 -5 3 -350
41 -767 84 -417 43 -969 100 -1228 126 -258 27 -954 99 -1545 160 -2295 237
-3979 411 -4700 485 -1911 198 -2469 255 -2483 255 -10 0 -34 28 -57 64 l-41
65 -477 270 -477 271 -18 45 c-31 73 -82 109 -336 233 -206 100 -245 116 -302
121 -37 4 -74 13 -83 20 -14 12 -16 11 -16 -8z m1101 -916 l378 -215 6 -53
c17 -150 74 -722 71 -724 -2 -2 -224 234 -493 524 l-491 528 38 41 c21 23 48
61 60 84 15 30 26 40 37 36 9 -4 186 -103 394 -221z m999 -330 c80 -8 262 -26
405 -41 143 -14 263 -29 267 -33 3 -3 18 -179 33 -391 14 -212 35 -511 45
-664 11 -154 19 -280 17 -281 -1 -1 -22 0 -47 3 l-46 4 -424 676 c-234 372
-435 693 -448 714 l-23 38 38 -5 c21 -3 103 -12 183 -20z m1375 -141 c259 -26
472 -49 475 -51 5 -4 79 -1296 74 -1302 -5 -5 -1009 71 -1015 78 -3 3 -25 290
-48 636 -23 347 -44 645 -47 664 l-5 34 48 -6 c26 -3 260 -27 518 -53z m-1429
-607 c215 -342 386 -624 381 -626 -14 -5 -651 41 -659 48 -5 5 -128 1160 -128
1205 0 5 3 6 8 2 4 -4 183 -287 398 -629z m2629 482 c275 -28 502 -53 504 -55
6 -6 64 -1254 58 -1260 -5 -6 -1065 71 -1071 77 -3 2 -18 256 -35 564 -17 308
-34 600 -37 649 l-7 89 44 -6 c24 -4 269 -29 544 -58z m1165 -119 c267 -27
504 -52 528 -55 l42 -6 0 -615 0 -615 -62 6 c-35 4 -264 21 -511 39 -246 18
-450 35 -453 39 -5 5 -63 1110 -64 1220 0 29 4 37 18 37 9 0 235 -22 502 -50z
m1252 -130 c267 -28 492 -50 498 -50 10 0 11 -130 5 -592 -4 -326 -8 -595 -10
-598 -2 -3 -79 0 -172 7 -92 7 -292 22 -443 33 -151 11 -307 23 -346 26 l-71
6 -7 604 c-4 332 -5 607 -2 612 3 5 18 7 33 5 15 -2 247 -26 515 -53z m975
-100 c158 -16 378 -39 488 -50 110 -11 214 -23 230 -25 l30 -5 -3 -82 c-2 -46
-11 -302 -21 -570 -10 -268 -20 -491 -24 -494 -7 -8 -1029 66 -1039 75 -4 4 7
1158 11 1179 2 5 51 1 328 -28z m1447 -150 c269 -27 490 -51 492 -53 1 -1 -6
-144 -16 -317 -10 -173 -24 -424 -31 -557 -11 -208 -15 -243 -28 -242 -103 3
-1012 76 -1017 81 -6 7 19 825 32 1046 l6 103 37 -5 c20 -4 256 -29 525 -56z
m1181 -121 c281 -29 513 -55 517 -58 6 -6 -86 -1068 -93 -1075 -5 -4 -1031 72
-1036 78 -2 2 10 243 27 536 16 293 30 541 30 551 0 13 7 19 23 19 12 0 252
-23 532 -51z m995 -104 c129 -13 335 -34 458 -46 122 -13 227 -26 232 -29 10
-6 -102 -1025 -113 -1036 -6 -6 -999 65 -1006 72 -2 2 17 241 43 531 25 290
46 532 46 536 0 5 24 6 53 3 28 -4 158 -17 287 -31z m-9510 -505 c362 -25 351
-23 371 -58 9 -15 95 -153 192 -307 l176 -280 25 -350 c13 -192 24 -351 23
-352 -5 -4 -987 54 -992 58 -16 16 -148 815 -170 1031 -33 321 -36 292 28 284
28 -3 185 -15 347 -26z m1398 -104 c289 -21 446 -37 451 -44 8 -14 77 -1250
70 -1257 -8 -7 -393 17 -399 25 -3 4 -153 243 -335 531 l-329 524 -8 70 c-4
39 -7 98 -7 132 l-1 61 58 -5 c31 -2 257 -19 500 -37z m1155 -85 c279 -21 510
-40 512 -43 2 -2 16 -242 29 -533 14 -292 28 -570 31 -619 l7 -89 -129 6
c-279 13 -938 49 -941 52 -1 1 -72 1224 -72 1257 0 11 0 11 563 -31z m1172
-87 c275 -20 501 -37 501 -38 1 -1 4 -274 8 -608 l7 -608 -48 0 c-62 0 -812
39 -880 46 l-53 5 0 47 c0 26 -11 277 -25 557 -27 548 -29 635 -17 635 4 0
232 -16 507 -36z m1195 -90 c266 -19 485 -36 486 -37 0 -1 -3 -229 -7 -507 -4
-278 -8 -547 -8 -598 l-1 -92 -52 5 c-29 3 -235 14 -458 25 -223 11 -429 23
-457 26 l-53 5 0 608 0 607 33 -3 c17 -2 250 -19 517 -39z m1208 -88 c249 -19
455 -35 457 -37 4 -4 -36 -1162 -40 -1167 -2 -2 -121 4 -266 12 -145 8 -373
21 -506 27 l-243 13 0 275 c0 152 3 421 7 599 l6 323 66 -6 c36 -4 270 -21
519 -39z m1167 -86 c231 -17 429 -31 440 -33 19 -2 20 -8 17 -87 -10 -228 -60
-1051 -65 -1056 -5 -5 -998 45 -1004 50 -1 1 6 240 17 531 11 292 20 554 20
584 l0 54 78 -7 c42 -3 266 -20 497 -36z m1150 -86 c264 -19 481 -37 483 -38
1 -2 -13 -183 -33 -402 -19 -219 -40 -451 -45 -514 -6 -63 -13 -135 -16 -159
l-6 -44 -141 7 c-78 4 -297 16 -487 26 -190 11 -351 20 -359 20 -16 0 -17 -48
24 680 14 234 25 433 25 443 0 23 -7 23 555 -19z m1150 -84 c242 -17 449 -33
461 -35 l20 -4 -22 -193 c-12 -106 -39 -337 -58 -513 -50 -440 -38 -391 -94
-387 -26 1 -244 13 -485 26 -241 13 -441 27 -444 30 -6 6 84 1079 93 1104 3 9
16 12 46 8 24 -3 241 -19 483 -36z m-8546 -429 c78 -123 141 -225 141 -227 0
-7 -254 8 -261 15 -4 3 -12 89 -18 191 -7 102 -14 203 -17 225 -4 27 -3 37 4
30 6 -5 74 -111 151 -234z m-869 -310 c190 -11 405 -23 478 -27 84 -4 135 -11
138 -18 6 -19 95 -1338 90 -1343 -6 -6 -814 12 -821 18 -4 5 -245 1354 -245
1376 0 7 3 13 8 13 4 0 162 -9 352 -19z m1003 -57 l99 -6 52 -81 c29 -45 189
-299 356 -565 l303 -483 6 -116 6 -116 -215 6 c-118 4 -338 10 -488 13 -266 7
-273 8 -277 28 -2 12 -22 298 -45 636 -22 338 -43 635 -46 659 l-6 43 79 -6
c43 -3 122 -8 176 -12z m745 -39 c4 -3 31 -443 32 -504 0 -30 -23 2 -166 230
-92 145 -169 270 -172 277 -4 11 23 12 149 7 85 -4 155 -9 157 -10z m647 -35
c497 -26 556 -30 560 -44 2 -6 15 -274 29 -596 15 -322 29 -607 32 -633 l5
-48 -333 7 c-183 3 -351 9 -372 13 -39 6 -40 9 -212 282 l-173 275 -21 357
c-11 196 -20 370 -20 387 l0 31 63 -6 c34 -3 233 -14 442 -25z m1200 -65 c242
-14 446 -25 453 -25 9 0 12 -133 12 -631 l0 -632 -132 6 c-73 4 -276 10 -451
13 -217 5 -320 11 -323 18 -2 6 -15 254 -29 551 -13 297 -28 582 -31 633 l-6
92 33 0 c19 0 232 -11 474 -25z m1125 -61 c267 -14 486 -27 488 -29 4 -4 -14
-1214 -19 -1219 -7 -7 -980 21 -987 29 -4 4 -8 285 -10 626 l-3 619 23 0 c13
0 241 -12 508 -26z m1203 -66 l437 -23 0 -25 c0 -46 -41 -1165 -43 -1166 -6
-4 -980 26 -984 30 -3 2 -1 278 3 611 l7 607 71 -5 c39 -3 268 -16 509 -29z
m1092 -58 c231 -12 435 -23 453 -26 40 -6 40 44 2 -619 -16 -286 -30 -523 -30
-527 0 -5 -60 -8 -134 -8 -126 0 -850 20 -852 23 -1 2 43 1181 45 1185 0 1 22
0 49 -3 26 -2 236 -14 467 -25z m928 -50 c94 -6 288 -17 431 -25 142 -8 260
-16 262 -17 5 -5 -94 -1110 -100 -1116 -6 -5 -946 17 -956 23 -3 2 9 255 27
562 17 307 32 564 32 571 1 15 70 16 304 2z m1361 -75 c241 -13 441 -27 444
-30 7 -6 -113 -1073 -121 -1082 -6 -5 -940 18 -947 24 -4 4 2 75 62 756 l32
357 45 0 c25 0 243 -11 485 -25z m-8701 -1021 c99 -5 117 -9 118 -23 0 -9 21
-319 47 -690 31 -446 44 -675 37 -677 -6 -3 -154 -3 -330 -2 l-319 3 -7 40
c-4 22 -59 334 -123 693 -64 359 -116 657 -116 663 0 11 417 7 693 -7z m915
-23 c166 -4 305 -11 309 -15 6 -6 84 -1338 79 -1343 -4 -4 -948 -4 -952 0 -4
4 -94 1282 -94 1339 l0 37 178 -5 c97 -3 313 -9 480 -13z m942 -673 c228 -363
416 -664 418 -668 3 -9 -820 -20 -830 -11 -5 5 -78 1248 -78 1324 0 13 8 17
38 17 l37 0 415 -662z m487 636 c72 -6 72 -6 77 -37 3 -18 14 -248 26 -512 11
-264 22 -497 24 -519 3 -21 1 -35 -4 -30 -6 7 -636 1007 -694 1102 -6 10 45
11 246 7 139 -3 285 -8 325 -11z m806 -20 l307 -7 0 -526 c0 -289 3 -576 7
-637 l6 -112 -422 -7 c-232 -4 -424 -6 -426 -3 -3 3 -65 1222 -65 1287 l0 24
143 -6 c78 -4 280 -10 450 -13z m1185 -30 l254 -7 -7 -616 c-4 -339 -9 -618
-11 -620 -1 -2 -221 -6 -488 -9 l-486 -5 0 638 0 638 243 -6 c133 -4 356 -10
495 -13z m1175 -30 l197 -7 0 -76 c0 -42 -9 -310 -20 -596 -11 -286 -20 -523
-20 -527 0 -5 -216 -8 -480 -8 l-480 0 5 473 c3 259 8 537 11 616 l6 144 292
-7 c160 -3 380 -9 489 -12z m959 -25 c194 -6 354 -12 356 -14 4 -4 -58 -1135
-63 -1152 -4 -10 -108 -13 -480 -13 l-475 0 0 68 c0 88 28 888 36 1020 l6 102
133 0 c74 0 293 -5 487 -11z m943 -24 c171 -3 356 -8 413 -11 l103 -6 -5 -37
c-3 -20 -26 -272 -52 -561 -25 -289 -46 -526 -47 -526 -1 -1 -210 -4 -465 -6
l-463 -4 6 80 c6 92 42 731 50 906 3 63 8 130 11 148 l5 34 67 -6 c37 -3 207
-8 377 -11z m1312 -33 c149 -4 275 -10 279 -15 7 -7 -110 -1074 -119 -1083 -2
-2 -211 -7 -465 -11 l-461 -6 5 39 c3 21 20 219 39 439 20 220 40 447 45 505
6 58 10 115 10 128 l0 22 198 -6 c108 -3 319 -9 469 -12z"/>
</g>
</svg>
